<svg xmlns="http://www.w3.org/2000/svg" aria-hidden="true" style="position:absolute;width:0;height:0;overflow:hidden">
  <defs>
    <symbol id="icon-logo" viewBox="0 0 158 64">
      <path d="M0 41.412V0h48.528a31.038 31.038 0 0 1 18.345 6.002 23.409 23.409 0 0 1 7.386 9.006l5.614 12.069a81.568 81.568 0 0 1 8.11-15.072l.278-.407a24.844 24.844 0 0 1 3.159-3.767l2.391-2.337a16.236 16.236 0 0 1 5.438-3.51l.207-.081A27.739 27.739 0 0 1 109.55 0h48.566v41.412H-.002zM0 48.941h158.118V64H0V48.941z"/>
    </symbol>
  </defs>
</svg>