<svg xmlns="http://www.w3.org/2000/svg" aria-hidden="true" style="position:absolute;width:0;height:0;overflow:hidden">
  <defs>
    <symbol id="icon-logo" viewBox="0 0 158 64">
      <path d="M0 41.412V0h48.528a31.038 31.038 0 0 1 18.345 6.002 23.409 23.409 0 0 1 7.386 9.006l5.614 12.069a81.568 81.568 0 0 1 8.11-15.072l.278-.407a24.844 24.844 0 0 1 3.159-3.767l2.391-2.337a16.236 16.236 0 0 1 5.438-3.51l.207-.081A27.739 27.739 0 0 1 109.55 0h48.566v41.412H-.002zM0 48.941h158.118V64H0V48.941z"/>
    </symbol>
    <symbol id="icon-correct" viewBox="0 0 64 64">
      <path d="M30.001 43.52l-10.801-12.161 3.599-4.052 7.201 8.104 14.397-16.211 3.602 4.055-17.999 20.265z"></path>
      <path d="M0 32c0 17.673 14.327 32 32 32s32-14.327 32-32c0-17.673-14.327-32-32-32s-32 14.327-32 32zM32 58.182c-3.438 0-6.843-0.677-10.019-1.993s-6.063-3.244-8.494-5.675c-2.431-2.431-4.36-5.317-5.676-8.494s-1.993-6.581-1.993-10.019c0-3.438 0.677-6.843 1.993-10.019s3.244-6.063 5.676-8.494c2.431-2.431 5.317-4.36 8.494-5.676s6.581-1.993 10.019-1.993c6.944 0 13.603 2.758 18.513 7.669s7.669 11.57 7.669 18.513c0 6.944-2.758 13.603-7.669 18.513s-11.569 7.669-18.513 7.669z"></path>
    </symbol>
    <symbol id="icon-error" viewBox="0 0 64 64">
      <path d="M32 58c-6.896 0-13.509-2.739-18.385-7.615s-7.615-11.489-7.615-18.385c0-6.896 2.739-13.509 7.615-18.385s11.489-7.615 18.385-7.615c6.896 0 13.509 2.739 18.385 7.615s7.615 11.489 7.615 18.385c0 6.896-2.739 13.509-7.615 18.385s-11.489 7.615-18.385 7.615zM32 64c8.487 0 16.626-3.371 22.627-9.373s9.373-14.141 9.373-22.628c0-8.487-3.371-16.626-9.373-22.627s-14.141-9.373-22.628-9.373c-8.487 0-16.626 3.371-22.627 9.373s-9.373 14.14-9.373 22.627c0 8.487 3.371 16.626 9.373 22.628s14.14 9.373 22.627 9.373zM36 44c0 1.061-0.421 2.078-1.172 2.828s-1.768 1.172-2.828 1.172c-1.061 0-2.078-0.421-2.828-1.172s-1.172-1.768-1.172-2.828c0-1.061 0.421-2.078 1.172-2.828s1.768-1.172 2.828-1.172c1.061 0 2.078 0.421 2.828 1.172s1.172 1.768 1.172 2.828zM35 19c0-0.796-0.316-1.559-0.879-2.121s-1.326-0.879-2.121-0.879c-0.796 0-1.559 0.316-2.121 0.879s-0.879 1.326-0.879 2.121v14c0 0.795 0.316 1.559 0.879 2.121s1.326 0.879 2.121 0.879c0.795 0 1.559-0.316 2.121-0.879s0.879-1.326 0.879-2.121v-14z"></path>
    </symbol>
  </defs>
</svg>