<svg xmlns="http://www.w3.org/2000/svg" aria-hidden="true" style="position:absolute;width:0;height:0;overflow:hidden">
  <defs>
    <symbol id="icon-logo" viewBox="0 0 158 64">
      <path d="M0 41.412V0h48.528a31.038 31.038 0 0 1 18.345 6.002 23.409 23.409 0 0 1 7.386 9.006l5.614 12.069a81.568 81.568 0 0 1 8.11-15.072l.278-.407a24.844 24.844 0 0 1 3.159-3.767l2.391-2.337a16.236 16.236 0 0 1 5.438-3.51l.207-.081A27.739 27.739 0 0 1 109.55 0h48.566v41.412H-.002zM0 48.941h158.118V64H0V48.941z"/>
    </symbol>
    <symbol id="icon-correct" viewBox="0 0 64 64">
      <path d="M30.001 43.52l-10.801-12.161 3.599-4.052 7.201 8.104 14.397-16.211 3.602 4.055-17.999 20.265z"></path>
      <path d="M0 32c0 17.673 14.327 32 32 32s32-14.327 32-32c0-17.673-14.327-32-32-32s-32 14.327-32 32zM32 58.182c-3.438 0-6.843-0.677-10.019-1.993s-6.063-3.244-8.494-5.675c-2.431-2.431-4.36-5.317-5.676-8.494s-1.993-6.581-1.993-10.019c0-3.438 0.677-6.843 1.993-10.019s3.244-6.063 5.676-8.494c2.431-2.431 5.317-4.36 8.494-5.676s6.581-1.993 10.019-1.993c6.944 0 13.603 2.758 18.513 7.669s7.669 11.57 7.669 18.513c0 6.944-2.758 13.603-7.669 18.513s-11.569 7.669-18.513 7.669z"></path>
    </symbol>
    <symbol id="icon-error" viewBox="0 0 64 64">
      <path d="M32 58c-6.896 0-13.509-2.739-18.385-7.615s-7.615-11.489-7.615-18.385c0-6.896 2.739-13.509 7.615-18.385s11.489-7.615 18.385-7.615c6.896 0 13.509 2.739 18.385 7.615s7.615 11.489 7.615 18.385c0 6.896-2.739 13.509-7.615 18.385s-11.489 7.615-18.385 7.615zM32 64c8.487 0 16.626-3.371 22.627-9.373s9.373-14.141 9.373-22.628c0-8.487-3.371-16.626-9.373-22.627s-14.141-9.373-22.628-9.373c-8.487 0-16.626 3.371-22.627 9.373s-9.373 14.14-9.373 22.627c0 8.487 3.371 16.626 9.373 22.628s14.14 9.373 22.627 9.373zM36 44c0 1.061-0.421 2.078-1.172 2.828s-1.768 1.172-2.828 1.172c-1.061 0-2.078-0.421-2.828-1.172s-1.172-1.768-1.172-2.828c0-1.061 0.421-2.078 1.172-2.828s1.768-1.172 2.828-1.172c1.061 0 2.078 0.421 2.828 1.172s1.172 1.768 1.172 2.828zM35 19c0-0.796-0.316-1.559-0.879-2.121s-1.326-0.879-2.121-0.879c-0.796 0-1.559 0.316-2.121 0.879s-0.879 1.326-0.879 2.121v14c0 0.795 0.316 1.559 0.879 2.121s1.326 0.879 2.121 0.879c0.795 0 1.559-0.316 2.121-0.879s0.879-1.326 0.879-2.121v-14z"></path>
    </symbol>
    <symbol id="icon-eye-on" viewBox="0 0 64 64">
      <path stroke-linejoin="round" stroke-linecap="round" stroke-miterlimit="4" stroke-width="4.16" d="M2.666 32c0 0 10.667-21.333 29.333-21.333s29.333 21.333 29.333 21.333-10.667 21.333-29.333 21.333c-18.667 0-29.333-21.333-29.333-21.333z"></path>
      <path stroke-linejoin="round" stroke-linecap="round" stroke-miterlimit="4" stroke-width="4.16" d="M32 40c4.418 0 8-3.582 8-8s-3.582-8-8-8c-4.418 0-8 3.582-8 8s3.582 8 8 8z"></path>
    </symbol>
    <symbol id="icon-eye-off" viewBox="0 0 64 64">
      <path stroke-linejoin="round" stroke-linecap="round" stroke-miterlimit="4" stroke-width="4.16" d="M47.84 47.84c-4.558 3.475-10.109 5.4-15.84 5.493-18.667 0-29.333-21.333-29.333-21.333 3.317-6.182 7.918-11.582 13.493-15.84M26.4 11.307c1.836-0.43 3.715-0.644 5.6-0.64 18.667 0 29.333 21.333 29.333 21.333-1.619 3.028-3.549 5.879-5.76 8.507M37.653 37.653c-0.733 0.786-1.616 1.416-2.597 1.853s-2.041 0.672-3.115 0.691c-1.074 0.019-2.141-0.179-3.137-0.581s-1.901-1.001-2.661-1.761c-0.76-0.76-1.358-1.664-1.761-2.66s-0.6-2.063-0.581-3.137c0.019-1.074 0.254-2.134 0.691-3.115s1.068-1.864 1.854-2.597"></path>
      <path stroke-linejoin="round" stroke-linecap="round" stroke-miterlimit="4" stroke-width="4.16" d="M2.666 2.667l58.667 58.666"></path>
    </symbol>
    <symbol id="icon-mobile-menu" viewBox="0 0 64 64">
      <path stroke-linejoin="round" stroke-linecap="round" stroke-miterlimit="4" stroke-width="4.5714" d="M8 32h48M8 16h48M24 48h32"></path>
    </symbol>
    <symbol id="icon-cross" viewBox="0 0 64 64">
      <path stroke-linejoin="round" stroke-linecap="round" stroke-miterlimit="4" stroke-width="4.5714" d="M48 16l-32 32"></path>
      <path stroke-linejoin="round" stroke-linecap="round" stroke-miterlimit="4" stroke-width="4.5714" d="M16 16l32 32"></path>
    </symbol>
    <symbol id="icon-arrow" viewBox="0 0 64 64">
      <path stroke-linejoin="round" stroke-linecap="round" stroke-miterlimit="4" stroke-width="5.3333" d="M37.333 45.333l13.333-13.333-13.333-13.333"></path>
      <path stroke-linejoin="round" stroke-linecap="round" stroke-miterlimit="4" stroke-width="5.3333" d="M50.667 32h-37.333"></path>
    </symbol>
    <symbol id="icon-chevron" viewBox="0 0 64 64">
      <path stroke-linejoin="round" stroke-linecap="round" stroke-miterlimit="4" stroke-width="4.8" d="M24 16l16 16-16 16"></path>
    </symbol>
    <symbol id="icon-trash" viewBox="0 0 64 64">
      <path stroke-linejoin="round" stroke-linecap="round" stroke-miterlimit="4" stroke-width="4.5714" d="M8 16h48"></path>
      <path stroke-linejoin="round" stroke-linecap="round" stroke-miterlimit="4" stroke-width="4.5714" d="M50.666 16v37.333c0 1.414-0.562 2.771-1.562 3.771s-2.357 1.562-3.771 1.562h-26.667c-1.415 0-2.771-0.562-3.771-1.562s-1.562-2.357-1.562-3.771v-37.333M21.333 16v-5.333c0-1.415 0.562-2.771 1.562-3.771s2.357-1.562 3.771-1.562h10.667c1.414 0 2.771 0.562 3.771 1.562s1.562 2.357 1.562 3.771v5.333"></path>
      <path stroke-linejoin="round" stroke-linecap="round" stroke-miterlimit="4" stroke-width="4.5714" d="M26.667 29.333v16"></path>
      <path stroke-linejoin="round" stroke-linecap="round" stroke-miterlimit="4" stroke-width="4.5714" d="M37.333 29.333v16"></path>
    </symbol>
    <symbol id="icon-start" viewBox="0 0 64 64">
      <path stroke-width="0" d="M57.6 32c0 14.139-11.462 25.6-25.6 25.6s-25.6-11.462-25.6-25.6c0-14.139 11.462-25.6 25.6-25.6s25.6 11.462 25.6 25.6z"></path>
      <path fill="none" stroke-linejoin="miter" stroke-linecap="butt" stroke-miterlimit="4" stroke-width="2.56" d="M62.72 32c0 16.966-13.754 30.72-30.72 30.72s-30.72-13.754-30.72-30.72c0-16.966 13.754-30.72 30.72-30.72s30.72 13.754 30.72 30.72z"></path>
    </symbol>
    <symbol id="icon-stop" viewBox="0 0 64 64">
      <path stroke-width="0" d="M23.040 19.2h17.92c2.121 0 3.84 1.719 3.84 3.84v17.92c0 2.121-1.719 3.84-3.84 3.84h-17.92c-2.121 0-3.84-1.719-3.84-3.84v-17.92c0-2.121 1.719-3.84 3.84-3.84z"></path>
      <path fill="none" stroke-linejoin="miter" stroke-linecap="butt" stroke-miterlimit="4" stroke-width="2.56" d="M62.72 32c0 16.966-13.754 30.72-30.72 30.72s-30.72-13.754-30.72-30.72c0-16.966 13.754-30.72 30.72-30.72s30.72 13.754 30.72 30.72z"></path>
    </symbol>
    <symbol id="icon-hourglass" viewBox="0 0 64 64">
      <path stroke-linejoin="round" stroke-linecap="round" stroke-miterlimit="4" stroke-width="6.4" d="M32 32l-11.394-9.495c-1.693-1.411-2.539-2.116-3.148-2.981-0.539-0.766-0.94-1.621-1.183-2.526-0.275-1.021-0.275-2.123-0.275-4.327v-7.338M32 32l11.394-9.495c1.693-1.411 2.539-2.116 3.148-2.981 0.539-0.766 0.94-1.621 1.183-2.526 0.275-1.021 0.275-2.123 0.275-4.327v-7.338M32 32l-11.394 9.495c-1.693 1.411-2.539 2.116-3.148 2.981-0.539 0.766-0.94 1.621-1.183 2.526-0.275 1.021-0.275 2.123-0.275 4.327v7.338M32 32l11.394 9.495c1.693 1.411 2.539 2.116 3.148 2.981 0.539 0.766 0.94 1.621 1.183 2.526 0.275 1.021 0.275 2.123 0.275 4.327v7.338"></path>
      <path stroke-linejoin="round" stroke-linecap="round" stroke-miterlimit="4" stroke-width="6.4" d="M10.666 5.333h42.667M10.666 58.667h42.667"></path>
    </symbol>
    <symbol id="icon-pie-chart" viewBox="0 0 64 64">
      <path opacity="0.8" stroke-linejoin="round" stroke-linecap="round" stroke-miterlimit="4" stroke-width="6.4" d="M45.867 37.333c0.739 0 1.108 0 1.407 0.164 0.247 0.135 0.477 0.389 0.587 0.649 0.133 0.314 0.099 0.648 0.033 1.317-0.348 3.467-1.541 6.807-3.489 9.722-2.344 3.508-5.676 6.243-9.574 7.857s-8.187 2.037-12.326 1.214-7.939-2.855-10.923-5.838c-2.983-2.984-5.015-6.785-5.838-10.923s-0.401-8.428 1.214-12.326c1.615-3.898 4.349-7.23 7.857-9.574 2.915-1.948 6.256-3.141 9.722-3.489 0.669-0.067 1.003-0.101 1.317 0.033 0.259 0.11 0.513 0.34 0.649 0.587 0.164 0.299 0.164 0.669 0.164 1.407v17.067c0 0.747 0 1.12 0.145 1.405 0.128 0.251 0.332 0.455 0.583 0.583 0.285 0.145 0.659 0.145 1.405 0.145h17.067z"></path>
      <path stroke-linejoin="round" stroke-linecap="round" stroke-miterlimit="4" stroke-width="6.4" d="M37.333 7.467c0-0.739 0-1.108 0.164-1.407 0.135-0.247 0.389-0.477 0.649-0.587 0.314-0.133 0.649-0.1 1.317-0.033 4.876 0.489 9.459 2.646 12.955 6.142s5.653 8.079 6.142 12.955c0.067 0.669 0.101 1.003-0.033 1.317-0.11 0.259-0.34 0.513-0.587 0.649-0.299 0.164-0.669 0.164-1.407 0.164h-17.067c-0.747 0-1.12 0-1.405-0.145-0.251-0.128-0.455-0.332-0.583-0.583-0.146-0.285-0.146-0.659-0.146-1.405v-17.067z"></path>
    </symbol>
  </defs>
</svg>